<?xml version="1.0" standalone="no"?>
<!DOCTYPE svg PUBLIC "-//W3C//DTD SVG 20010904//EN"
 "http://www.w3.org/TR/2001/REC-SVG-20010904/DTD/svg10.dtd">
<svg version="1.0" xmlns="http://www.w3.org/2000/svg"
 width="1024.000000pt" height="1024.000000pt" viewBox="0 0 1024.000000 1024.000000"
 preserveAspectRatio="xMidYMid meet">
<metadata>
Created by potrace 1.14, written by Peter Selinger 2001-2017
</metadata>
<g transform="translate(0.000000,1024.000000) scale(0.100000,-0.100000)"
fill="#000000" stroke="none">
<path d="M4145 10189 c-6 -14 -32 -30 -70 -44 -93 -33 -176 -78 -192 -102 -12
-17 1 -12 48 20 36 24 91 51 124 61 33 10 72 26 86 36 37 26 56 10 24 -20 -35
-33 -278 -149 -289 -139 -21 19 -28 7 -24 -38 6 -53 26 -104 59 -145 21 -26
21 -27 4 -82 -16 -51 -20 -55 -41 -50 -13 4 -60 7 -105 8 -69 1 -83 -2 -95
-18 -20 -29 -18 -59 4 -52 16 5 17 -5 17 -117 0 -101 3 -127 18 -148 28 -42
88 -78 140 -85 26 -4 47 -9 47 -11 0 -2 -7 -15 -16 -28 -13 -21 -15 -40 -9
-115 6 -78 5 -94 -10 -110 -14 -16 -16 -28 -9 -72 5 -29 7 -92 5 -140 l-3 -87
32 -20 32 -19 -1 -155 c-2 -168 6 -218 55 -337 23 -58 28 -89 40 -270 12 -202
36 -346 68 -422 34 -80 16 -170 -71 -358 -100 -213 -167 -444 -135 -464 6 -3
8 -21 5 -39 -6 -37 19 -122 44 -149 8 -9 52 -36 97 -59 115 -58 109 -51 102
-139 -7 -73 -6 -77 19 -100 42 -40 49 -59 56 -170 4 -58 11 -136 15 -173 6
-61 4 -73 -16 -109 -33 -59 -40 -164 -13 -197 l20 -25 46 38 c25 20 48 33 51
28 3 -4 3 -26 0 -47 -3 -23 1 -51 10 -70 35 -73 41 -120 23 -184 -9 -33 -30
-83 -47 -111 -16 -28 -30 -53 -30 -55 0 -3 -14 -33 -31 -67 -17 -35 -47 -112
-66 -173 -79 -252 -74 -225 -71 -410 3 -145 6 -175 21 -198 23 -36 72 -66 120
-73 20 -4 37 -10 37 -14 0 -4 -9 -42 -21 -86 -41 -159 -79 -365 -79 -428 0
-39 12 -109 30 -179 17 -64 30 -141 30 -171 0 -83 29 -353 45 -414 8 -31 12
-88 10 -140 -4 -93 -5 -99 -37 -241 -18 -80 -19 -101 -10 -138 16 -59 15 -180
-3 -288 -8 -49 -15 -110 -15 -135 0 -25 -7 -67 -16 -95 -12 -39 -15 -98 -14
-269 0 -121 5 -226 10 -236 15 -29 12 -299 -4 -367 -8 -32 -19 -92 -26 -133
-7 -41 -18 -107 -26 -147 -8 -40 -14 -75 -14 -77 0 -3 530 -3 1178 0 861 5
1179 9 1185 18 4 6 7 126 6 266 -1 255 -1 256 24 303 14 26 29 71 32 100 6 51
-4 207 -25 376 -6 47 -12 137 -13 200 -2 107 0 120 23 161 23 43 25 56 31 268
5 170 10 226 21 240 7 9 22 34 31 56 l18 38 -42 84 -42 84 -8 188 c-5 129 -13
201 -24 232 -9 25 -20 74 -25 110 -5 36 -16 113 -26 173 -9 59 -13 114 -10
122 3 9 19 15 38 15 18 1 44 7 58 15 14 8 42 14 62 15 42 0 62 25 95 125 45
133 55 204 60 399 4 207 6 215 64 257 58 42 244 233 260 266 8 18 33 46 54 63
38 30 38 31 36 93 -2 44 -10 76 -29 110 -25 46 -25 51 -15 114 6 35 18 72 26
81 8 10 20 35 26 57 6 22 19 45 30 52 20 13 101 141 101 160 0 13 -16 20 -90
39 -58 16 -225 78 -250 94 -8 5 -29 16 -47 24 -17 8 -43 27 -57 43 -14 15 -41
37 -61 47 l-35 19 -31 -29 c-17 -16 -53 -68 -80 -115 -52 -92 -79 -124 -79
-95 0 27 -21 18 -33 -14 -18 -48 -61 -42 -136 20 -46 39 -64 63 -80 103 -10
29 -35 94 -55 145 -20 52 -45 142 -55 201 -24 136 -70 233 -137 288 -25 21
-55 57 -66 80 -29 61 -131 141 -210 164 -18 5 -80 14 -138 19 -58 5 -124 12
-147 16 l-43 6 0 59 c0 54 2 59 18 51 9 -5 34 -13 56 -16 21 -4 46 -12 56 -19
14 -8 31 -7 70 6 29 9 65 17 81 17 35 0 40 27 9 55 -34 31 -37 49 -75 470 -19
211 -16 225 51 244 37 10 63 11 107 4 42 -7 60 -6 67 2 6 7 7 15 4 18 -3 3 -3
10 0 16 4 6 17 0 32 -14 14 -13 44 -33 67 -44 39 -19 43 -20 66 -4 44 28 93
81 86 92 -3 7 -45 11 -99 11 -59 0 -110 6 -137 16 -24 8 -69 17 -101 19 -31 3
-89 15 -130 29 l-73 24 63 30 c35 17 71 36 80 44 33 26 62 38 91 38 29 0 174
61 185 78 8 14 -150 5 -210 -12 -27 -7 -66 -21 -87 -30 -22 -9 -36 -12 -32 -7
9 16 -12 13 -38 -3 -26 -17 -112 -19 -179 -3 l-48 11 47 25 c65 35 106 94 136
193 27 87 30 102 28 131 -2 26 -18 12 -26 -22 -6 -27 -88 -121 -105 -121 -5 0
-38 -18 -73 -40 -55 -35 -76 -42 -135 -47 l-70 -6 -13 44 c-7 24 -12 67 -11
94 2 54 -16 192 -27 213 -6 11 -9 11 -18 0 -16 -20 -65 -236 -58 -258 3 -10 1
-27 -5 -37 -5 -10 -15 -31 -20 -47 -9 -24 -14 -27 -38 -21 -15 3 -36 15 -48
26 -11 10 -30 19 -43 19 -24 0 -85 30 -116 57 -12 10 -35 39 -53 65 -40 58
-64 73 -92 58 -11 -6 -20 -15 -20 -21 0 -18 49 -94 76 -120 15 -13 24 -18 20
-12 -5 9 -2 11 8 7 8 -3 19 -19 25 -35 5 -16 15 -29 21 -29 8 0 8 6 0 20 -12
23 -1 27 31 10 21 -12 25 -36 7 -42 -8 -3 -7 -11 5 -28 26 -37 21 -57 -25 -90
-33 -24 -51 -30 -95 -30 -61 0 -110 25 -180 93 -26 25 -43 35 -43 26 0 -33 62
-87 159 -139 55 -30 101 -59 101 -63 0 -5 -3 -6 -7 -4 -5 2 -44 21 -88 42 -44
21 -92 47 -107 58 -27 20 -46 19 -33 -3 8 -13 92 -57 175 -92 l65 -27 3 -45
c3 -46 3 -46 -30 -46 -38 0 -88 28 -126 70 -35 37 -78 55 -86 34 -12 -31 186
-236 247 -257 7 -2 12 -26 12 -62 1 -54 3 -60 25 -65 43 -10 61 -57 58 -151
l-3 -83 -32 61 c-37 69 -82 98 -109 71 -11 -11 -12 -21 -5 -40 9 -25 7 -27
-48 -47 -75 -27 -85 -27 -77 2 24 81 9 219 -38 342 -8 22 -16 51 -16 65 -1 14
-8 41 -15 60 -11 29 -14 31 -14 12 -1 -21 -5 -23 -43 -20 l-43 3 -11 65 c-7
36 -12 103 -13 150 -1 55 -8 104 -21 140 -11 30 -20 69 -20 85 0 17 -14 68
-30 115 -17 46 -30 99 -30 118 0 19 -7 59 -17 90 -18 63 -20 162 -8 374 6 120
5 141 -9 163 -9 14 -22 25 -29 25 -6 0 -18 4 -26 9 -13 8 -13 12 0 27 11 13
13 43 12 125 -2 90 -7 119 -28 168 -25 60 -31 106 -17 127 4 6 36 26 72 43 36
18 71 36 79 40 8 4 23 32 34 62 23 64 25 170 7 277 -10 58 -16 75 -33 81 -25
9 -64 -8 -70 -31 -6 -22 -90 -63 -112 -54 -11 4 -15 13 -12 26 3 11 1 23 -4
26 -5 3 -9 29 -9 58 0 61 4 67 100 146 36 30 69 57 73 61 17 13 -23 67 -113
152 -50 48 -94 87 -98 87 -4 0 -12 -10 -17 -21z m134 -106 c39 -37 71 -70 71
-74 0 -4 -13 -10 -30 -14 -16 -4 -32 -10 -35 -15 -3 -4 -31 -23 -63 -40 -31
-18 -75 -47 -96 -63 -44 -35 -108 -41 -129 -13 -7 8 -29 22 -49 31 -33 13 -77
59 -67 69 2 2 28 18 58 36 113 66 231 99 224 62 -2 -6 0 -11 5 -10 4 1 21 -6
39 -15 41 -22 63 -22 63 1 0 25 -11 34 -26 21 -17 -14 -54 -2 -54 17 0 8 -9
14 -20 14 -11 0 -20 3 -20 7 0 9 42 53 51 53 4 0 39 -30 78 -67z m49 -128
c-20 -14 -43 -25 -50 -25 -15 1 61 50 77 50 5 0 -7 -11 -27 -25z m-69 -46 c-7
-4 -17 -5 -22 -2 -5 3 -3 9 4 14 7 4 17 5 22 2 5 -3 3 -9 -4 -14z m-128 -62
c-10 -9 -11 -8 -5 6 3 10 9 15 12 12 3 -3 0 -11 -7 -18z m59 -2 c-12 -15 -30
-12 -30 6 0 5 10 9 21 9 18 0 19 -2 9 -15z m-210 -21 c0 -2 -7 -4 -15 -4 -8 0
-15 4 -15 10 0 5 7 7 15 4 8 -4 15 -8 15 -10z m80 -16 c0 -16 -3 -19 -11 -11
-6 6 -8 16 -5 22 11 17 16 13 16 -11z m1889 -2093 c-20 -7 -49 -10 -65 -7
l-29 6 25 7 c14 4 43 7 65 7 l40 1 -36 -14z m-289 -226 c0 -6 -4 -7 -10 -4 -5
3 -10 11 -10 16 0 6 5 7 10 4 6 -3 10 -11 10 -16z m110 -39 c0 -5 -4 -10 -10
-10 -5 0 -10 5 -10 10 0 6 5 10 10 10 6 0 10 -4 10 -10z m-135 -218 c-7 -8
-24 62 -18 72 4 6 11 -7 14 -29 4 -22 6 -41 4 -43z"/>
<path d="M4005 9983 c15 -16 63 -24 70 -13 3 5 -2 10 -12 10 -10 0 -29 3 -43
6 -17 5 -22 3 -15 -3z"/>
<path d="M4093 9964 c0 -16 13 -19 21 -5 3 5 0 11 -7 14 -8 3 -14 -1 -14 -9z"/>
<path d="M4138 9953 c7 -3 16 -2 19 1 4 3 -2 6 -13 5 -11 0 -14 -3 -6 -6z"/>
</g>
</svg>
